<?xml version="1.0" encoding="utf-8"?>
<!-- Generator: Fusion 360, Shaper Origin Export Add-In, Version 1.7.0  -->
<svg xmlns="http://www.w3.org/2000/svg" xmlns:xlink="http://www.w3.org/1999/xlink" xmlns:shaper="http://www.shapertools.com/namespaces/shaper" shaper:fusionaddin="version:1.7.0" width="19.4cm" height="3.8cm" version="1.1" x="0cm" y="0cm" viewBox="0 0 19.4 3.8" enable-background="new 0 0 19.4 3.8" xml:space="preserve"><path d="M9.4,-3.44375 A0.3,0.3 270 0,1 9.7,-3.14375 L9.7,0.05625 A0.3,0.3 0 0,1 9.4,0.35625 L-9.4,0.35625 A0.3,0.3 90 0,1 -9.7,0.05625 L-9.7,-3.14375 A0.3,0.3 180 0,1 -9.4,-3.44375 L9.4,-3.44375z" transform="matrix(1,0,0,-1,9.7,0.35625)" fill="rgb(0,0,0)" shaper:cutDepth="0.5cm" stroke-linecap="round" stroke-linejoin="round" /><path d="M-0.1125,0.15625 a0.1125,0.1125 0 1,1 0.225,0 a0.1125,0.1125 0 1,1 -0.225,0z" transform="matrix(1,0,0,-1,9.7,0.35625)" fill="rgb(120,120,120)" fill-rule="nonzero" shaper:cutDepth="0.1cm" stroke-linecap="round" stroke-linejoin="round" /><path d="M-0.1125,-3.24375 a0.1125,0.1125 0 1,1 0.225,0 a0.1125,0.1125 0 1,1 -0.225,0z" transform="matrix(1,0,0,-1,9.7,0.35625)" fill="rgb(120,120,120)" fill-rule="nonzero" shaper:cutDepth="0.1cm" stroke-linecap="round" stroke-linejoin="round" /><path d="M9.3435662,0.112316 a0.1125,0.1125 0 1,1 0.225,0 a0.1125,0.1125 0 1,1 -0.225,0z" transform="matrix(1,0,0,-1,9.7,0.35625)" fill="rgb(120,120,120)" fill-rule="nonzero" shaper:cutDepth="0.1cm" stroke-linecap="round" stroke-linejoin="round" /><path d="M-9.5685662,0.112316 a0.1125,0.1125 0 1,1 0.225,0 a0.1125,0.1125 0 1,1 -0.225,0z" transform="matrix(1,0,0,-1,9.7,0.35625)" fill="rgb(120,120,120)" fill-rule="nonzero" shaper:cutDepth="0.1cm" stroke-linecap="round" stroke-linejoin="round" /><path d="M9.3435662,-3.199816 a0.1125,0.1125 0 1,1 0.225,0 a0.1125,0.1125 0 1,1 -0.225,0z" transform="matrix(1,0,0,-1,9.7,0.35625)" fill="rgb(120,120,120)" fill-rule="nonzero" shaper:cutDepth="0.1cm" stroke-linecap="round" stroke-linejoin="round" /><path d="M-9.5685662,-3.199816 a0.1125,0.1125 0 1,1 0.225,0 a0.1125,0.1125 0 1,1 -0.225,0z" transform="matrix(1,0,0,-1,9.7,0.35625)" fill="rgb(120,120,120)" fill-rule="nonzero" shaper:cutDepth="0.1cm" stroke-linecap="round" stroke-linejoin="round" /><path d="M9.3,-0.04375 L-9.3,-0.04375 -9.3,-3.04375 9.3,-3.04375 9.3,-0.04375z" transform="matrix(1,0,0,-1,9.7,0.35625)" fill="rgb(160,160,160)" fill-rule="nonzero" shaper:cutDepth="0.3cm" stroke-linecap="round" stroke-linejoin="round" /></svg>