<?xml version="1.0" encoding="utf-8"?>
<!-- Generator: Fusion 360, Shaper Origin Export Add-In, Version 1.7.0  -->
<svg xmlns="http://www.w3.org/2000/svg" xmlns:xlink="http://www.w3.org/1999/xlink" xmlns:shaper="http://www.shapertools.com/namespaces/shaper" shaper:fusionaddin="version:1.7.0" width="19.4cm" height="3.8cm" version="1.1" x="0cm" y="0cm" viewBox="0 0 19.4 3.8" enable-background="new 0 0 19.4 3.8" xml:space="preserve"><path d="M9.7,3.14375 A0.3,0.3 0 0,1 9.4,3.44375 L-9.4,3.44375 A0.3,0.3 90 0,1 -9.7,3.14375 L-9.7,-0.05625 A0.3,0.3 180 0,1 -9.4,-0.35625 L9.4,-0.35625 A0.3,0.3 270 0,1 9.7,-0.05625 L9.7,3.14375z" transform="matrix(1,0,0,-1,9.7,3.44375)" fill="rgb(0,0,0)" shaper:cutDepth="2.5cm" stroke-linecap="round" stroke-linejoin="round" /><path d="M-0.1125,-0.15625 a0.1125,0.1125 0 1,1 0.225,0 a0.1125,0.1125 0 1,1 -0.225,0z" transform="matrix(1,0,0,-1,9.7,3.44375)" fill="rgb(103,103,103)" fill-rule="nonzero" shaper:cutDepth="0.1cm" stroke-linecap="round" stroke-linejoin="round" /><path d="M-0.1125,3.24375 a0.1125,0.1125 0 1,1 0.225,0 a0.1125,0.1125 0 1,1 -0.225,0z" transform="matrix(1,0,0,-1,9.7,3.44375)" fill="rgb(103,103,103)" fill-rule="nonzero" shaper:cutDepth="0.1cm" stroke-linecap="round" stroke-linejoin="round" /><path d="M-9.5685345,-0.1122845 a0.1125,0.1125 0 1,1 0.225,0 a0.1125,0.1125 0 1,1 -0.225,0z" transform="matrix(1,0,0,-1,9.7,3.44375)" fill="rgb(103,103,103)" fill-rule="nonzero" shaper:cutDepth="0.1cm" stroke-linecap="round" stroke-linejoin="round" /><path d="M9.3432786,-0.1120286 a0.1125,0.1125 0 1,1 0.225,0 a0.1125,0.1125 0 1,1 -0.225,0z" transform="matrix(1,0,0,-1,9.7,3.44375)" fill="rgb(103,103,103)" fill-rule="nonzero" shaper:cutDepth="0.1cm" stroke-linecap="round" stroke-linejoin="round" /><path d="M-9.568566,3.199816 a0.1125,0.1125 0 1,1 0.225,0 a0.1125,0.1125 0 1,1 -0.225,0z" transform="matrix(1,0,0,-1,9.7,3.44375)" fill="rgb(103,103,103)" fill-rule="nonzero" shaper:cutDepth="0.1cm" stroke-linecap="round" stroke-linejoin="round" /><path d="M9.3432615,3.1995115 a0.1125,0.1125 0 1,1 0.225,0 a0.1125,0.1125 0 1,1 -0.225,0z" transform="matrix(1,0,0,-1,9.7,3.44375)" fill="rgb(103,103,103)" fill-rule="nonzero" shaper:cutDepth="0.1cm" stroke-linecap="round" stroke-linejoin="round" /><path d="M-9.3,3.04375 L9.3,3.04375 9.3,0.04375 -9.3,0.04375 -9.3,3.04375z" transform="matrix(1,0,0,-1,9.7,3.44375)" fill="rgb(176,176,176)" fill-rule="nonzero" shaper:cutDepth="1.9cm" stroke-linecap="round" stroke-linejoin="round" /><path d="M4.875,1.54375 a0.925,0.925 0 1,1 1.85,0 a0.925,0.925 0 1,1 -1.85,0z" transform="matrix(1,0,0,-1,9.7,3.44375)" fill="rgb(255,255,255)" stroke="rgb(0,0,0)" stroke-width="0.0010cm" stroke-linecap="round" stroke-linejoin="round" shaper:cutDepth="2.5cm" /><path d="M-3.125,1.54375 a0.925,0.925 0 1,1 1.85,0 a0.925,0.925 0 1,1 -1.85,0z" transform="matrix(1,0,0,-1,9.7,3.44375)" fill="rgb(255,255,255)" stroke="rgb(0,0,0)" stroke-width="0.0010cm" stroke-linecap="round" stroke-linejoin="round" shaper:cutDepth="2.5cm" /><path d="M1.275,1.54375 a0.925,0.925 0 1,1 1.85,0 a0.925,0.925 0 1,1 -1.85,0z" transform="matrix(1,0,0,-1,9.7,3.44375)" fill="rgb(255,255,255)" stroke="rgb(0,0,0)" stroke-width="0.0010cm" stroke-linecap="round" stroke-linejoin="round" shaper:cutDepth="2.5cm" /><path d="M-6.725,1.54375 a0.925,0.925 0 1,1 1.85,0 a0.925,0.925 0 1,1 -1.85,0z" transform="matrix(1,0,0,-1,9.7,3.44375)" fill="rgb(255,255,255)" stroke="rgb(0,0,0)" stroke-width="0.0010cm" stroke-linecap="round" stroke-linejoin="round" shaper:cutDepth="2.5cm" /></svg>